<svg height="512" viewBox="0 0 58 58" width="512" xmlns="http://www.w3.org/2000/svg"><g id="Page-1" fill="none" fill-rule="evenodd"><g id="058---Photo-Portfolio" fill-rule="nonzero" transform="translate(-1)"><path id="Shape" d="m59 2.18v43.64c.0452102 1.152631-.8477494 2.1259569-2 2.18h-54c-.32664034.0002755-.64752413-.0859836-.93-.25-.67395258-.4078082-1.08118494-1.1423488-1.07-1.93v-43.64c-.04521019-1.152631.84774936-2.12595691 2-2.18h54c1.1522506.05404309 2.0452102 1.027369 2 2.18z" fill="#b0d3f0"/><path id="Shape" d="m59 11.74v34.08c.0452102 1.152631-.8477494 2.1259569-2 2.18h-54c-.32664034.0002755-.64752413-.0859836-.93-.25 3.75-10.19 18.27-40.56 56.93-36.01z" fill="#90bae1"/><path id="Shape" d="m38 48 3 6-11 2-11-2 3-6 8-2z" fill="#2980ba"/><rect id="Rectangle-path" fill="#3b97d3" height="4" rx="2" width="34" x="13" y="54"/><path id="Shape" d="m7 9h8v22h-8c-.55228475 0-1-.4477153-1-1v-20c0-.55228475.44771525-1 1-1z" fill="#4482c3"/><path id="Shape" d="m45 9h8c.5522847 0 1 .44771525 1 1v20c0 .5522847-.4477153 1-1 1h-8z" fill="#4482c3"/><g fill="#285680"><circle id="Oval" cx="30" cy="37" r="1"/><circle id="Oval" cx="34" cy="37" r="1"/><circle id="Oval" cx="38" cy="37" r="1"/><circle id="Oval" cx="26" cy="37" r="1"/><circle id="Oval" cx="22" cy="37" r="1"/></g><path id="Shape" d="m59 42v3.82c.0452102 1.152631-.8477494 2.1259569-2 2.18h-54c-1.15225064-.0540431-2.04521019-1.027369-2-2.18v-3.82z" fill="#3b97d3"/><rect id="Rectangle-path" fill="#2fa8cc" height="28" rx="1" width="32" x="14" y="5"/><circle id="Oval" cx="36" cy="12" fill="#f0c419" r="3"/><path id="Shape" d="m33.92 24.08-8.92 8.92h-10c-.5522847 0-1-.4477153-1-1v-3l8.65-10.82c.7324241 1.124301 1.9797817 1.8064642 3.3215703 1.8165226s2.5992327-.6533282 3.3484297-1.7665226z" fill="#35495e"/><path id="Shape" d="m46 26v6c0 .5522847-.4477153 1-1 1h-20l8.92-8.92 1.8-1.8c.7444728 1.0772969 1.9704931 1.7203353 3.28 1.7203353s2.5355272-.6430384 3.28-1.7203353z" fill="#3f5c6c"/><path id="Shape" d="m29.32 18.23c-.749197 1.1131944-2.0066411 1.776581-3.3484297 1.7665226s-2.5891462-.6922216-3.3215703-1.8165226l2.56-3.2c.1930633-.2359961.4824894-.372033.7873891-.370091.3048997.0019421.5925695.1416548.7826109.380091z" fill="#ecf0f1"/><path id="Shape" d="m42.28 22.28c-.7444728 1.0772969-1.9704931 1.7203353-3.28 1.7203353s-2.5355272-.6430384-3.28-1.7203353l2.57-2.57c.3930079-.3899779 1.0269921-.3899779 1.42 0z" fill="#ecf0f1"/></g></g></svg>